<mxfile host="app.diagrams.net" agent="Mozilla/5.0 (Windows NT 10.0; Win64; x64) AppleWebKit/537.36 (KHTML, like Gecko) Chrome/131.0.0.0 Safari/537.36" version="25.0.1">
  <diagram name="Page-1" id="Y0LPk77BKQvUPCKgTlTw">
    <mxGraphModel grid="1" page="1" gridSize="10" guides="1" tooltips="1" connect="1" arrows="1" fold="1" pageScale="1" pageWidth="2336" pageHeight="1654" math="0" shadow="0">
      <root>
        <mxCell id="0" />
        <mxCell id="1" parent="0" />
        <mxCell id="SNCVLQs43mSJRQqrSbxp-8" value="" style="group" connectable="0" vertex="1" parent="1">
          <mxGeometry x="480" y="360" width="80" height="80" as="geometry" />
        </mxCell>
        <mxCell id="SNCVLQs43mSJRQqrSbxp-9" value="User&lt;div&gt;Profile&lt;/div&gt;" style="ellipse;whiteSpace=wrap;html=1;aspect=fixed;" vertex="1" parent="SNCVLQs43mSJRQqrSbxp-8">
          <mxGeometry width="80" height="80" as="geometry" />
        </mxCell>
        <mxCell id="SNCVLQs43mSJRQqrSbxp-10" value="" style="endArrow=none;html=1;rounded=0;" edge="1" parent="SNCVLQs43mSJRQqrSbxp-8">
          <mxGeometry width="50" height="50" relative="1" as="geometry">
            <mxPoint x="5" y="20" as="sourcePoint" />
            <mxPoint x="75" y="20" as="targetPoint" />
          </mxGeometry>
        </mxCell>
        <mxCell id="Q1W2HbKujV4FSigrEpdg-21" value="1" style="text;html=1;align=center;verticalAlign=middle;whiteSpace=wrap;rounded=0;" vertex="1" parent="SNCVLQs43mSJRQqrSbxp-8">
          <mxGeometry x="10" width="60" height="30" as="geometry" />
        </mxCell>
        <mxCell id="Q1W2HbKujV4FSigrEpdg-14" value="" style="group" connectable="0" vertex="1" parent="1">
          <mxGeometry x="200" y="90" width="640" height="80" as="geometry" />
        </mxCell>
        <mxCell id="QQwrk3j505Z_wYohVXXo-3" value="" style="group" vertex="1" connectable="0" parent="Q1W2HbKujV4FSigrEpdg-14">
          <mxGeometry x="280" width="80" height="80" as="geometry" />
        </mxCell>
        <mxCell id="QQwrk3j505Z_wYohVXXo-1" value="G2U" style="ellipse;whiteSpace=wrap;html=1;aspect=fixed;" vertex="1" parent="QQwrk3j505Z_wYohVXXo-3">
          <mxGeometry width="80" height="80" as="geometry" />
        </mxCell>
        <mxCell id="QQwrk3j505Z_wYohVXXo-2" value="" style="endArrow=none;html=1;rounded=0;" edge="1" parent="QQwrk3j505Z_wYohVXXo-3">
          <mxGeometry width="50" height="50" relative="1" as="geometry">
            <mxPoint x="5" y="20" as="sourcePoint" />
            <mxPoint x="75" y="20" as="targetPoint" />
          </mxGeometry>
        </mxCell>
        <mxCell id="SNCVLQs43mSJRQqrSbxp-1" value="0" style="text;html=1;align=center;verticalAlign=middle;whiteSpace=wrap;rounded=0;" vertex="1" parent="QQwrk3j505Z_wYohVXXo-3">
          <mxGeometry x="20" width="40" height="20" as="geometry" />
        </mxCell>
        <mxCell id="SNCVLQs43mSJRQqrSbxp-12" value="Buyer" style="rounded=0;whiteSpace=wrap;html=1;" vertex="1" parent="Q1W2HbKujV4FSigrEpdg-14">
          <mxGeometry y="10" width="120" height="60" as="geometry" />
        </mxCell>
        <mxCell id="SNCVLQs43mSJRQqrSbxp-13" value="Seller" style="rounded=0;whiteSpace=wrap;html=1;" vertex="1" parent="Q1W2HbKujV4FSigrEpdg-14">
          <mxGeometry x="520" y="10" width="120" height="60" as="geometry" />
        </mxCell>
        <mxCell id="SNCVLQs43mSJRQqrSbxp-15" style="edgeStyle=orthogonalEdgeStyle;rounded=0;orthogonalLoop=1;jettySize=auto;html=1;exitX=1;exitY=0.25;exitDx=0;exitDy=0;entryX=0.041;entryY=0.311;entryDx=0;entryDy=0;entryPerimeter=0;" edge="1" parent="Q1W2HbKujV4FSigrEpdg-14" source="SNCVLQs43mSJRQqrSbxp-12" target="QQwrk3j505Z_wYohVXXo-1">
          <mxGeometry relative="1" as="geometry" />
        </mxCell>
        <mxCell id="SNCVLQs43mSJRQqrSbxp-16" style="edgeStyle=orthogonalEdgeStyle;rounded=0;orthogonalLoop=1;jettySize=auto;html=1;exitX=0;exitY=0.25;exitDx=0;exitDy=0;entryX=0.949;entryY=0.308;entryDx=0;entryDy=0;entryPerimeter=0;" edge="1" parent="Q1W2HbKujV4FSigrEpdg-14" source="SNCVLQs43mSJRQqrSbxp-13" target="QQwrk3j505Z_wYohVXXo-1">
          <mxGeometry relative="1" as="geometry" />
        </mxCell>
        <mxCell id="SNCVLQs43mSJRQqrSbxp-17" value="Seller Credential" style="text;html=1;align=center;verticalAlign=middle;whiteSpace=wrap;rounded=0;" vertex="1" parent="Q1W2HbKujV4FSigrEpdg-14">
          <mxGeometry x="380" width="110" height="30" as="geometry" />
        </mxCell>
        <mxCell id="Q1W2HbKujV4FSigrEpdg-6" value="Buyer Credential" style="text;html=1;align=center;verticalAlign=middle;whiteSpace=wrap;rounded=0;" vertex="1" parent="Q1W2HbKujV4FSigrEpdg-14">
          <mxGeometry x="140" width="110" height="30" as="geometry" />
        </mxCell>
        <mxCell id="Q1W2HbKujV4FSigrEpdg-9" style="edgeStyle=orthogonalEdgeStyle;rounded=0;orthogonalLoop=1;jettySize=auto;html=1;exitX=1;exitY=1;exitDx=0;exitDy=0;entryX=0.022;entryY=0.96;entryDx=0;entryDy=0;entryPerimeter=0;" edge="1" parent="Q1W2HbKujV4FSigrEpdg-14" source="QQwrk3j505Z_wYohVXXo-1" target="SNCVLQs43mSJRQqrSbxp-13">
          <mxGeometry relative="1" as="geometry" />
        </mxCell>
        <mxCell id="Q1W2HbKujV4FSigrEpdg-10" value="Ordered product" style="text;html=1;align=center;verticalAlign=middle;whiteSpace=wrap;rounded=0;" vertex="1" parent="Q1W2HbKujV4FSigrEpdg-14">
          <mxGeometry x="380" y="40" width="110" height="30" as="geometry" />
        </mxCell>
        <mxCell id="Q1W2HbKujV4FSigrEpdg-12" style="edgeStyle=orthogonalEdgeStyle;rounded=0;orthogonalLoop=1;jettySize=auto;html=1;exitX=0;exitY=1;exitDx=0;exitDy=0;entryX=0.993;entryY=0.96;entryDx=0;entryDy=0;entryPerimeter=0;" edge="1" parent="Q1W2HbKujV4FSigrEpdg-14" source="QQwrk3j505Z_wYohVXXo-1" target="SNCVLQs43mSJRQqrSbxp-12">
          <mxGeometry relative="1" as="geometry" />
        </mxCell>
        <mxCell id="Q1W2HbKujV4FSigrEpdg-13" value="Product list" style="text;html=1;align=center;verticalAlign=middle;whiteSpace=wrap;rounded=0;" vertex="1" parent="Q1W2HbKujV4FSigrEpdg-14">
          <mxGeometry x="140" y="40" width="110" height="30" as="geometry" />
        </mxCell>
        <mxCell id="Q1W2HbKujV4FSigrEpdg-23" value="" style="group" connectable="0" vertex="1" parent="1">
          <mxGeometry x="480" y="480" width="80" height="80" as="geometry" />
        </mxCell>
        <mxCell id="Q1W2HbKujV4FSigrEpdg-24" value="Browse&lt;div&gt;product&lt;/div&gt;" style="ellipse;whiteSpace=wrap;html=1;aspect=fixed;" vertex="1" parent="Q1W2HbKujV4FSigrEpdg-23">
          <mxGeometry width="80" height="80" as="geometry" />
        </mxCell>
        <mxCell id="Q1W2HbKujV4FSigrEpdg-25" value="" style="endArrow=none;html=1;rounded=0;" edge="1" parent="Q1W2HbKujV4FSigrEpdg-23">
          <mxGeometry width="50" height="50" relative="1" as="geometry">
            <mxPoint x="5" y="20" as="sourcePoint" />
            <mxPoint x="75" y="20" as="targetPoint" />
          </mxGeometry>
        </mxCell>
        <mxCell id="Q1W2HbKujV4FSigrEpdg-26" value="2" style="text;html=1;align=center;verticalAlign=middle;whiteSpace=wrap;rounded=0;" vertex="1" parent="Q1W2HbKujV4FSigrEpdg-23">
          <mxGeometry x="10" width="60" height="30" as="geometry" />
        </mxCell>
        <mxCell id="Q1W2HbKujV4FSigrEpdg-27" value="" style="group" connectable="0" vertex="1" parent="1">
          <mxGeometry x="480" y="600" width="80" height="80" as="geometry" />
        </mxCell>
        <mxCell id="Q1W2HbKujV4FSigrEpdg-28" value="Manage&lt;div&gt;post&lt;/div&gt;" style="ellipse;whiteSpace=wrap;html=1;aspect=fixed;" vertex="1" parent="Q1W2HbKujV4FSigrEpdg-27">
          <mxGeometry width="80" height="80" as="geometry" />
        </mxCell>
        <mxCell id="Q1W2HbKujV4FSigrEpdg-29" value="" style="endArrow=none;html=1;rounded=0;" edge="1" parent="Q1W2HbKujV4FSigrEpdg-27">
          <mxGeometry width="50" height="50" relative="1" as="geometry">
            <mxPoint x="5" y="20" as="sourcePoint" />
            <mxPoint x="75" y="20" as="targetPoint" />
          </mxGeometry>
        </mxCell>
        <mxCell id="Q1W2HbKujV4FSigrEpdg-30" value="3" style="text;html=1;align=center;verticalAlign=middle;whiteSpace=wrap;rounded=0;" vertex="1" parent="Q1W2HbKujV4FSigrEpdg-27">
          <mxGeometry x="10" width="60" height="30" as="geometry" />
        </mxCell>
        <mxCell id="Q1W2HbKujV4FSigrEpdg-31" value="" style="group" connectable="0" vertex="1" parent="1">
          <mxGeometry x="1750" y="1080" width="80" height="80" as="geometry" />
        </mxCell>
        <mxCell id="Q1W2HbKujV4FSigrEpdg-32" value="Order System" style="ellipse;whiteSpace=wrap;html=1;aspect=fixed;" vertex="1" parent="Q1W2HbKujV4FSigrEpdg-31">
          <mxGeometry width="80" height="80" as="geometry" />
        </mxCell>
        <mxCell id="Q1W2HbKujV4FSigrEpdg-33" value="" style="endArrow=none;html=1;rounded=0;" edge="1" parent="Q1W2HbKujV4FSigrEpdg-31">
          <mxGeometry width="50" height="50" relative="1" as="geometry">
            <mxPoint x="5" y="20" as="sourcePoint" />
            <mxPoint x="75" y="20" as="targetPoint" />
          </mxGeometry>
        </mxCell>
        <mxCell id="Q1W2HbKujV4FSigrEpdg-34" value="4.1" style="text;html=1;align=center;verticalAlign=middle;whiteSpace=wrap;rounded=0;" vertex="1" parent="Q1W2HbKujV4FSigrEpdg-31">
          <mxGeometry x="10" width="60" height="30" as="geometry" />
        </mxCell>
        <mxCell id="Q1W2HbKujV4FSigrEpdg-46" style="edgeStyle=orthogonalEdgeStyle;rounded=0;orthogonalLoop=1;jettySize=auto;html=1;entryX=0;entryY=0.5;entryDx=0;entryDy=0;" edge="1" parent="1" source="Q1W2HbKujV4FSigrEpdg-35" target="SNCVLQs43mSJRQqrSbxp-9">
          <mxGeometry relative="1" as="geometry">
            <Array as="points">
              <mxPoint x="260" y="400" />
            </Array>
          </mxGeometry>
        </mxCell>
        <mxCell id="Q1W2HbKujV4FSigrEpdg-59" style="edgeStyle=orthogonalEdgeStyle;rounded=0;orthogonalLoop=1;jettySize=auto;html=1;exitX=1.007;exitY=0.411;exitDx=0;exitDy=0;entryX=0;entryY=0.5;entryDx=0;entryDy=0;exitPerimeter=0;" edge="1" parent="1" source="Q1W2HbKujV4FSigrEpdg-35" target="Q1W2HbKujV4FSigrEpdg-24">
          <mxGeometry relative="1" as="geometry">
            <Array as="points">
              <mxPoint x="330" y="485" />
              <mxPoint x="330" y="520" />
            </Array>
          </mxGeometry>
        </mxCell>
        <mxCell id="Q1W2HbKujV4FSigrEpdg-89" style="edgeStyle=orthogonalEdgeStyle;rounded=0;orthogonalLoop=1;jettySize=auto;html=1;entryX=0;entryY=0.5;entryDx=0;entryDy=0;exitX=0.5;exitY=1;exitDx=0;exitDy=0;" edge="1" parent="1" source="Q1W2HbKujV4FSigrEpdg-35" target="Q1W2HbKujV4FSigrEpdg-28">
          <mxGeometry relative="1" as="geometry" />
        </mxCell>
        <mxCell id="Q1W2HbKujV4FSigrEpdg-97" style="edgeStyle=orthogonalEdgeStyle;rounded=0;orthogonalLoop=1;jettySize=auto;html=1;exitX=0.25;exitY=1;exitDx=0;exitDy=0;entryX=0;entryY=0.5;entryDx=0;entryDy=0;" edge="1" parent="1" source="Q1W2HbKujV4FSigrEpdg-35" target="Q1W2HbKujV4FSigrEpdg-80">
          <mxGeometry relative="1" as="geometry" />
        </mxCell>
        <mxCell id="Q1W2HbKujV4FSigrEpdg-35" value="Buyer" style="rounded=0;whiteSpace=wrap;html=1;" vertex="1" parent="1">
          <mxGeometry x="200" y="460" width="120" height="60" as="geometry" />
        </mxCell>
        <mxCell id="Q1W2HbKujV4FSigrEpdg-36" value="Seller" style="rounded=0;whiteSpace=wrap;html=1;" vertex="1" parent="1">
          <mxGeometry x="760" y="460" width="120" height="60" as="geometry" />
        </mxCell>
        <mxCell id="Q1W2HbKujV4FSigrEpdg-40" value="" style="group" connectable="0" vertex="1" parent="1">
          <mxGeometry x="730" y="330" width="90" height="30" as="geometry" />
        </mxCell>
        <mxCell id="Q1W2HbKujV4FSigrEpdg-37" value="" style="endArrow=none;html=1;rounded=0;" edge="1" parent="Q1W2HbKujV4FSigrEpdg-40">
          <mxGeometry width="50" height="50" relative="1" as="geometry">
            <mxPoint as="sourcePoint" />
            <mxPoint x="90" as="targetPoint" />
          </mxGeometry>
        </mxCell>
        <mxCell id="Q1W2HbKujV4FSigrEpdg-38" value="" style="endArrow=none;html=1;rounded=0;" edge="1" parent="Q1W2HbKujV4FSigrEpdg-40">
          <mxGeometry width="50" height="50" relative="1" as="geometry">
            <mxPoint y="30" as="sourcePoint" />
            <mxPoint x="90" y="30" as="targetPoint" />
          </mxGeometry>
        </mxCell>
        <mxCell id="Q1W2HbKujV4FSigrEpdg-39" value="User database" style="text;html=1;align=center;verticalAlign=middle;whiteSpace=wrap;rounded=0;" vertex="1" parent="Q1W2HbKujV4FSigrEpdg-40">
          <mxGeometry width="90" height="30" as="geometry" />
        </mxCell>
        <mxCell id="Q1W2HbKujV4FSigrEpdg-41" style="edgeStyle=orthogonalEdgeStyle;rounded=0;orthogonalLoop=1;jettySize=auto;html=1;exitX=0.5;exitY=0;exitDx=0;exitDy=0;entryX=0.5;entryY=0;entryDx=0;entryDy=0;" edge="1" parent="1" source="Q1W2HbKujV4FSigrEpdg-21" target="Q1W2HbKujV4FSigrEpdg-39">
          <mxGeometry relative="1" as="geometry">
            <mxPoint x="519.7931034482758" y="250" as="targetPoint" />
          </mxGeometry>
        </mxCell>
        <mxCell id="Q1W2HbKujV4FSigrEpdg-42" value="Request" style="text;html=1;align=center;verticalAlign=middle;whiteSpace=wrap;rounded=0;" vertex="1" parent="1">
          <mxGeometry x="610" y="290" width="60" height="30" as="geometry" />
        </mxCell>
        <mxCell id="Q1W2HbKujV4FSigrEpdg-45" value="Data" style="text;html=1;align=center;verticalAlign=middle;whiteSpace=wrap;rounded=0;" vertex="1" parent="1">
          <mxGeometry x="630" y="370" width="60" height="30" as="geometry" />
        </mxCell>
        <mxCell id="Q1W2HbKujV4FSigrEpdg-47" value="Request" style="text;html=1;align=center;verticalAlign=middle;whiteSpace=wrap;rounded=0;" vertex="1" parent="1">
          <mxGeometry x="700" y="530" width="60" height="30" as="geometry" />
        </mxCell>
        <mxCell id="Q1W2HbKujV4FSigrEpdg-49" value="Buyer Credential" style="text;html=1;align=center;verticalAlign=middle;whiteSpace=wrap;rounded=0;" vertex="1" parent="1">
          <mxGeometry x="310" y="380" width="130" height="30" as="geometry" />
        </mxCell>
        <mxCell id="Q1W2HbKujV4FSigrEpdg-51" style="edgeStyle=orthogonalEdgeStyle;rounded=0;orthogonalLoop=1;jettySize=auto;html=1;entryX=0.997;entryY=0.609;entryDx=0;entryDy=0;entryPerimeter=0;" edge="1" parent="1" source="Q1W2HbKujV4FSigrEpdg-36" target="SNCVLQs43mSJRQqrSbxp-9">
          <mxGeometry relative="1" as="geometry" />
        </mxCell>
        <mxCell id="Q1W2HbKujV4FSigrEpdg-52" value="Seller Credential" style="text;html=1;align=center;verticalAlign=middle;whiteSpace=wrap;rounded=0;" vertex="1" parent="1">
          <mxGeometry x="650" y="470" width="130" height="30" as="geometry" />
        </mxCell>
        <mxCell id="Q1W2HbKujV4FSigrEpdg-53" style="edgeStyle=orthogonalEdgeStyle;rounded=0;orthogonalLoop=1;jettySize=auto;html=1;exitX=0;exitY=1;exitDx=0;exitDy=0;entryX=0.75;entryY=0;entryDx=0;entryDy=0;" edge="1" parent="1" source="SNCVLQs43mSJRQqrSbxp-9" target="Q1W2HbKujV4FSigrEpdg-35">
          <mxGeometry relative="1" as="geometry" />
        </mxCell>
        <mxCell id="Q1W2HbKujV4FSigrEpdg-54" value="Buyer Information" style="text;html=1;align=center;verticalAlign=middle;whiteSpace=wrap;rounded=0;" vertex="1" parent="1">
          <mxGeometry x="320" y="410" width="130" height="30" as="geometry" />
        </mxCell>
        <mxCell id="Q1W2HbKujV4FSigrEpdg-56" style="edgeStyle=orthogonalEdgeStyle;rounded=0;orthogonalLoop=1;jettySize=auto;html=1;exitX=1;exitY=1;exitDx=0;exitDy=0;entryX=0;entryY=1;entryDx=0;entryDy=0;" edge="1" parent="1" source="SNCVLQs43mSJRQqrSbxp-9" target="Q1W2HbKujV4FSigrEpdg-36">
          <mxGeometry relative="1" as="geometry">
            <Array as="points">
              <mxPoint x="548" y="440" />
              <mxPoint x="610" y="440" />
              <mxPoint x="610" y="520" />
            </Array>
          </mxGeometry>
        </mxCell>
        <mxCell id="Q1W2HbKujV4FSigrEpdg-57" value="Seller Information" style="text;html=1;align=center;verticalAlign=middle;whiteSpace=wrap;rounded=0;" vertex="1" parent="1">
          <mxGeometry x="610" y="500" width="130" height="30" as="geometry" />
        </mxCell>
        <mxCell id="Q1W2HbKujV4FSigrEpdg-58" style="edgeStyle=orthogonalEdgeStyle;rounded=0;orthogonalLoop=1;jettySize=auto;html=1;entryX=1;entryY=0.375;entryDx=0;entryDy=0;entryPerimeter=0;exitX=0.556;exitY=1.013;exitDx=0;exitDy=0;exitPerimeter=0;" edge="1" parent="1" source="Q1W2HbKujV4FSigrEpdg-39" target="SNCVLQs43mSJRQqrSbxp-9">
          <mxGeometry relative="1" as="geometry">
            <mxPoint x="800" y="370" as="sourcePoint" />
            <mxPoint x="603" y="390" as="targetPoint" />
            <Array as="points">
              <mxPoint x="780" y="390" />
            </Array>
          </mxGeometry>
        </mxCell>
        <mxCell id="Q1W2HbKujV4FSigrEpdg-60" value="Request parameter" style="text;html=1;align=center;verticalAlign=middle;whiteSpace=wrap;rounded=0;" vertex="1" parent="1">
          <mxGeometry x="330" y="500" width="140" height="30" as="geometry" />
        </mxCell>
        <mxCell id="Q1W2HbKujV4FSigrEpdg-63" style="edgeStyle=orthogonalEdgeStyle;rounded=0;orthogonalLoop=1;jettySize=auto;html=1;exitX=0;exitY=1;exitDx=0;exitDy=0;entryX=0.75;entryY=1;entryDx=0;entryDy=0;" edge="1" parent="1" source="Q1W2HbKujV4FSigrEpdg-24" target="Q1W2HbKujV4FSigrEpdg-35">
          <mxGeometry relative="1" as="geometry" />
        </mxCell>
        <mxCell id="Q1W2HbKujV4FSigrEpdg-64" value="Product list" style="text;html=1;align=center;verticalAlign=middle;whiteSpace=wrap;rounded=0;" vertex="1" parent="1">
          <mxGeometry x="310" y="530" width="90" height="30" as="geometry" />
        </mxCell>
        <mxCell id="Q1W2HbKujV4FSigrEpdg-69" value="" style="group" connectable="0" vertex="1" parent="1">
          <mxGeometry x="910" y="530" width="120" height="30" as="geometry" />
        </mxCell>
        <mxCell id="Q1W2HbKujV4FSigrEpdg-70" value="" style="endArrow=none;html=1;rounded=0;" edge="1" parent="Q1W2HbKujV4FSigrEpdg-69">
          <mxGeometry width="50" height="50" relative="1" as="geometry">
            <mxPoint as="sourcePoint" />
            <mxPoint x="120" as="targetPoint" />
          </mxGeometry>
        </mxCell>
        <mxCell id="Q1W2HbKujV4FSigrEpdg-71" value="" style="endArrow=none;html=1;rounded=0;" edge="1" parent="Q1W2HbKujV4FSigrEpdg-69">
          <mxGeometry width="50" height="50" relative="1" as="geometry">
            <mxPoint y="30" as="sourcePoint" />
            <mxPoint x="120" y="30" as="targetPoint" />
          </mxGeometry>
        </mxCell>
        <mxCell id="Q1W2HbKujV4FSigrEpdg-72" value="Product database" style="text;html=1;align=center;verticalAlign=middle;whiteSpace=wrap;rounded=0;" vertex="1" parent="Q1W2HbKujV4FSigrEpdg-69">
          <mxGeometry width="120" height="30" as="geometry" />
        </mxCell>
        <mxCell id="Q1W2HbKujV4FSigrEpdg-73" style="edgeStyle=orthogonalEdgeStyle;rounded=0;orthogonalLoop=1;jettySize=auto;html=1;exitX=1;exitY=0.5;exitDx=0;exitDy=0;entryX=0;entryY=0.75;entryDx=0;entryDy=0;" edge="1" parent="1" source="Q1W2HbKujV4FSigrEpdg-24" target="Q1W2HbKujV4FSigrEpdg-72">
          <mxGeometry relative="1" as="geometry">
            <Array as="points">
              <mxPoint x="590" y="520" />
              <mxPoint x="590" y="553" />
              <mxPoint x="900" y="553" />
            </Array>
          </mxGeometry>
        </mxCell>
        <mxCell id="Q1W2HbKujV4FSigrEpdg-74" value="Add product" style="text;html=1;align=center;verticalAlign=middle;whiteSpace=wrap;rounded=0;" vertex="1" parent="1">
          <mxGeometry x="670" y="620" width="110" height="30" as="geometry" />
        </mxCell>
        <mxCell id="Q1W2HbKujV4FSigrEpdg-75" style="edgeStyle=orthogonalEdgeStyle;rounded=0;orthogonalLoop=1;jettySize=auto;html=1;exitX=0.5;exitY=1;exitDx=0;exitDy=0;entryX=1;entryY=1;entryDx=0;entryDy=0;" edge="1" parent="1" source="Q1W2HbKujV4FSigrEpdg-72" target="Q1W2HbKujV4FSigrEpdg-24">
          <mxGeometry relative="1" as="geometry">
            <Array as="points">
              <mxPoint x="970" y="580" />
              <mxPoint x="548" y="580" />
            </Array>
          </mxGeometry>
        </mxCell>
        <mxCell id="Q1W2HbKujV4FSigrEpdg-76" value="Filtered product" style="text;html=1;align=center;verticalAlign=middle;whiteSpace=wrap;rounded=0;" vertex="1" parent="1">
          <mxGeometry x="672.5" y="560" width="115" height="30" as="geometry" />
        </mxCell>
        <mxCell id="Q1W2HbKujV4FSigrEpdg-79" value="" style="group" connectable="0" vertex="1" parent="1">
          <mxGeometry x="480" y="720" width="80" height="80" as="geometry" />
        </mxCell>
        <mxCell id="Q1W2HbKujV4FSigrEpdg-80" value="Order System" style="ellipse;whiteSpace=wrap;html=1;aspect=fixed;" vertex="1" parent="Q1W2HbKujV4FSigrEpdg-79">
          <mxGeometry width="80" height="80" as="geometry" />
        </mxCell>
        <mxCell id="Q1W2HbKujV4FSigrEpdg-81" value="" style="endArrow=none;html=1;rounded=0;" edge="1" parent="Q1W2HbKujV4FSigrEpdg-79">
          <mxGeometry width="50" height="50" relative="1" as="geometry">
            <mxPoint x="5" y="20" as="sourcePoint" />
            <mxPoint x="75" y="20" as="targetPoint" />
          </mxGeometry>
        </mxCell>
        <mxCell id="Q1W2HbKujV4FSigrEpdg-82" value="4" style="text;html=1;align=center;verticalAlign=middle;whiteSpace=wrap;rounded=0;" vertex="1" parent="Q1W2HbKujV4FSigrEpdg-79">
          <mxGeometry x="10" width="60" height="30" as="geometry" />
        </mxCell>
        <mxCell id="Q1W2HbKujV4FSigrEpdg-83" style="edgeStyle=orthogonalEdgeStyle;rounded=0;orthogonalLoop=1;jettySize=auto;html=1;entryX=0.799;entryY=1.017;entryDx=0;entryDy=0;entryPerimeter=0;" edge="1" parent="1" source="Q1W2HbKujV4FSigrEpdg-28" target="Q1W2HbKujV4FSigrEpdg-72">
          <mxGeometry relative="1" as="geometry" />
        </mxCell>
        <mxCell id="Q1W2HbKujV4FSigrEpdg-84" value="Order Product" style="text;html=1;align=center;verticalAlign=middle;whiteSpace=wrap;rounded=0;" vertex="1" parent="1">
          <mxGeometry x="300" y="740" width="100" height="30" as="geometry" />
        </mxCell>
        <mxCell id="Q1W2HbKujV4FSigrEpdg-85" value="Online selling" style="text;html=1;align=center;verticalAlign=middle;whiteSpace=wrap;rounded=0;" vertex="1" parent="1">
          <mxGeometry x="650" y="600" width="95" height="30" as="geometry" />
        </mxCell>
        <mxCell id="Q1W2HbKujV4FSigrEpdg-88" style="edgeStyle=orthogonalEdgeStyle;rounded=0;orthogonalLoop=1;jettySize=auto;html=1;exitX=0.75;exitY=1;exitDx=0;exitDy=0;" edge="1" parent="1" source="Q1W2HbKujV4FSigrEpdg-36">
          <mxGeometry relative="1" as="geometry">
            <mxPoint x="895" y="530.0000000000001" as="sourcePoint" />
            <mxPoint x="555" y="620" as="targetPoint" />
            <Array as="points">
              <mxPoint x="850" y="620" />
            </Array>
          </mxGeometry>
        </mxCell>
        <mxCell id="Q1W2HbKujV4FSigrEpdg-91" value="Payment" style="text;html=1;align=center;verticalAlign=middle;whiteSpace=wrap;rounded=0;" vertex="1" parent="1">
          <mxGeometry x="640" y="827" width="60" height="30" as="geometry" />
        </mxCell>
        <mxCell id="Q1W2HbKujV4FSigrEpdg-92" value="Add product want to buy" style="text;html=1;align=center;verticalAlign=middle;whiteSpace=wrap;rounded=0;" vertex="1" parent="1">
          <mxGeometry x="301.25" y="620" width="147.5" height="30" as="geometry" />
        </mxCell>
        <mxCell id="Q1W2HbKujV4FSigrEpdg-93" value="" style="group" connectable="0" vertex="1" parent="1">
          <mxGeometry x="830" y="690" width="180" height="30" as="geometry" />
        </mxCell>
        <mxCell id="Q1W2HbKujV4FSigrEpdg-94" value="" style="endArrow=none;html=1;rounded=0;" edge="1" parent="Q1W2HbKujV4FSigrEpdg-93">
          <mxGeometry width="50" height="50" relative="1" as="geometry">
            <mxPoint as="sourcePoint" />
            <mxPoint x="180" as="targetPoint" />
          </mxGeometry>
        </mxCell>
        <mxCell id="Q1W2HbKujV4FSigrEpdg-95" value="" style="endArrow=none;html=1;rounded=0;" edge="1" parent="Q1W2HbKujV4FSigrEpdg-93">
          <mxGeometry width="50" height="50" relative="1" as="geometry">
            <mxPoint y="30" as="sourcePoint" />
            <mxPoint x="180" y="30" as="targetPoint" />
          </mxGeometry>
        </mxCell>
        <mxCell id="Q1W2HbKujV4FSigrEpdg-96" value="Ordered/Sold Product database" style="text;html=1;align=center;verticalAlign=middle;whiteSpace=wrap;rounded=0;" vertex="1" parent="Q1W2HbKujV4FSigrEpdg-93">
          <mxGeometry width="180" height="30" as="geometry" />
        </mxCell>
        <mxCell id="Q1W2HbKujV4FSigrEpdg-98" style="edgeStyle=orthogonalEdgeStyle;rounded=0;orthogonalLoop=1;jettySize=auto;html=1;exitX=1;exitY=0.5;exitDx=0;exitDy=0;entryX=0.5;entryY=1;entryDx=0;entryDy=0;" edge="1" parent="1" source="Q1W2HbKujV4FSigrEpdg-80" target="Q1W2HbKujV4FSigrEpdg-36">
          <mxGeometry relative="1" as="geometry" />
        </mxCell>
        <mxCell id="Q1W2HbKujV4FSigrEpdg-99" value="Order Product" style="text;html=1;align=center;verticalAlign=middle;whiteSpace=wrap;rounded=0;" vertex="1" parent="1">
          <mxGeometry x="625" y="740" width="100" height="30" as="geometry" />
        </mxCell>
        <mxCell id="Q1W2HbKujV4FSigrEpdg-101" style="edgeStyle=orthogonalEdgeStyle;rounded=0;orthogonalLoop=1;jettySize=auto;html=1;exitX=1;exitY=1;exitDx=0;exitDy=0;entryX=0.5;entryY=1;entryDx=0;entryDy=0;" edge="1" parent="1" source="Q1W2HbKujV4FSigrEpdg-80" target="Q1W2HbKujV4FSigrEpdg-96">
          <mxGeometry relative="1" as="geometry" />
        </mxCell>
        <mxCell id="Q1W2HbKujV4FSigrEpdg-102" value="Order Product" style="text;html=1;align=center;verticalAlign=middle;whiteSpace=wrap;rounded=0;" vertex="1" parent="1">
          <mxGeometry x="630" y="770" width="100" height="30" as="geometry" />
        </mxCell>
        <mxCell id="Q1W2HbKujV4FSigrEpdg-103" value="" style="group" connectable="0" vertex="1" parent="1">
          <mxGeometry x="1630" y="105" width="80" height="80" as="geometry" />
        </mxCell>
        <mxCell id="Q1W2HbKujV4FSigrEpdg-104" value="Create/Update&lt;div&gt;account info.&lt;/div&gt;" style="ellipse;whiteSpace=wrap;html=1;aspect=fixed;" vertex="1" parent="Q1W2HbKujV4FSigrEpdg-103">
          <mxGeometry width="80" height="80" as="geometry" />
        </mxCell>
        <mxCell id="Q1W2HbKujV4FSigrEpdg-105" value="" style="endArrow=none;html=1;rounded=0;" edge="1" parent="Q1W2HbKujV4FSigrEpdg-103">
          <mxGeometry width="50" height="50" relative="1" as="geometry">
            <mxPoint x="5" y="20" as="sourcePoint" />
            <mxPoint x="75" y="20" as="targetPoint" />
          </mxGeometry>
        </mxCell>
        <mxCell id="Q1W2HbKujV4FSigrEpdg-106" value="1.1" style="text;html=1;align=center;verticalAlign=middle;whiteSpace=wrap;rounded=0;" vertex="1" parent="Q1W2HbKujV4FSigrEpdg-103">
          <mxGeometry x="10" width="60" height="30" as="geometry" />
        </mxCell>
        <mxCell id="Q1W2HbKujV4FSigrEpdg-107" value="" style="group" connectable="0" vertex="1" parent="1">
          <mxGeometry x="1740" y="610" width="80" height="80" as="geometry" />
        </mxCell>
        <mxCell id="Q1W2HbKujV4FSigrEpdg-108" value="Filter product" style="ellipse;whiteSpace=wrap;html=1;aspect=fixed;" vertex="1" parent="Q1W2HbKujV4FSigrEpdg-107">
          <mxGeometry width="80" height="80" as="geometry" />
        </mxCell>
        <mxCell id="Q1W2HbKujV4FSigrEpdg-109" value="" style="endArrow=none;html=1;rounded=0;" edge="1" parent="Q1W2HbKujV4FSigrEpdg-107">
          <mxGeometry width="50" height="50" relative="1" as="geometry">
            <mxPoint x="5" y="20" as="sourcePoint" />
            <mxPoint x="75" y="20" as="targetPoint" />
          </mxGeometry>
        </mxCell>
        <mxCell id="Q1W2HbKujV4FSigrEpdg-110" value="2.2" style="text;html=1;align=center;verticalAlign=middle;whiteSpace=wrap;rounded=0;" vertex="1" parent="Q1W2HbKujV4FSigrEpdg-107">
          <mxGeometry x="10" width="60" height="30" as="geometry" />
        </mxCell>
        <mxCell id="Q1W2HbKujV4FSigrEpdg-111" value="" style="group" connectable="0" vertex="1" parent="1">
          <mxGeometry x="1750" y="1320" width="80" height="80" as="geometry" />
        </mxCell>
        <mxCell id="Q1W2HbKujV4FSigrEpdg-112" value="Shipping Company" style="ellipse;whiteSpace=wrap;html=1;aspect=fixed;" vertex="1" parent="Q1W2HbKujV4FSigrEpdg-111">
          <mxGeometry width="80" height="80" as="geometry" />
        </mxCell>
        <mxCell id="Q1W2HbKujV4FSigrEpdg-113" value="" style="endArrow=none;html=1;rounded=0;" edge="1" parent="Q1W2HbKujV4FSigrEpdg-111">
          <mxGeometry width="50" height="50" relative="1" as="geometry">
            <mxPoint x="5" y="20" as="sourcePoint" />
            <mxPoint x="75" y="20" as="targetPoint" />
          </mxGeometry>
        </mxCell>
        <mxCell id="Q1W2HbKujV4FSigrEpdg-114" value="4.3" style="text;html=1;align=center;verticalAlign=middle;whiteSpace=wrap;rounded=0;" vertex="1" parent="Q1W2HbKujV4FSigrEpdg-111">
          <mxGeometry x="10" width="60" height="30" as="geometry" />
        </mxCell>
        <mxCell id="Q1W2HbKujV4FSigrEpdg-115" value="" style="group" connectable="0" vertex="1" parent="1">
          <mxGeometry x="1740" y="490" width="80" height="80" as="geometry" />
        </mxCell>
        <mxCell id="Q1W2HbKujV4FSigrEpdg-116" value="Display product list" style="ellipse;whiteSpace=wrap;html=1;aspect=fixed;" vertex="1" parent="Q1W2HbKujV4FSigrEpdg-115">
          <mxGeometry width="80" height="80" as="geometry" />
        </mxCell>
        <mxCell id="Q1W2HbKujV4FSigrEpdg-117" value="" style="endArrow=none;html=1;rounded=0;" edge="1" parent="Q1W2HbKujV4FSigrEpdg-115">
          <mxGeometry width="50" height="50" relative="1" as="geometry">
            <mxPoint x="5" y="20" as="sourcePoint" />
            <mxPoint x="75" y="20" as="targetPoint" />
          </mxGeometry>
        </mxCell>
        <mxCell id="Q1W2HbKujV4FSigrEpdg-118" value="2.1" style="text;html=1;align=center;verticalAlign=middle;whiteSpace=wrap;rounded=0;" vertex="1" parent="Q1W2HbKujV4FSigrEpdg-115">
          <mxGeometry x="10" width="60" height="30" as="geometry" />
        </mxCell>
        <mxCell id="Q1W2HbKujV4FSigrEpdg-119" value="" style="group" connectable="0" vertex="1" parent="1">
          <mxGeometry x="1750" y="1200" width="80" height="80" as="geometry" />
        </mxCell>
        <mxCell id="Q1W2HbKujV4FSigrEpdg-120" value="Payment" style="ellipse;whiteSpace=wrap;html=1;aspect=fixed;" vertex="1" parent="Q1W2HbKujV4FSigrEpdg-119">
          <mxGeometry width="80" height="80" as="geometry" />
        </mxCell>
        <mxCell id="Q1W2HbKujV4FSigrEpdg-121" value="" style="endArrow=none;html=1;rounded=0;" edge="1" parent="Q1W2HbKujV4FSigrEpdg-119">
          <mxGeometry width="50" height="50" relative="1" as="geometry">
            <mxPoint x="5" y="20" as="sourcePoint" />
            <mxPoint x="75" y="20" as="targetPoint" />
          </mxGeometry>
        </mxCell>
        <mxCell id="Q1W2HbKujV4FSigrEpdg-122" value="4.2" style="text;html=1;align=center;verticalAlign=middle;whiteSpace=wrap;rounded=0;" vertex="1" parent="Q1W2HbKujV4FSigrEpdg-119">
          <mxGeometry x="10" width="60" height="30" as="geometry" />
        </mxCell>
        <mxCell id="Q1W2HbKujV4FSigrEpdg-123" value="" style="group" connectable="0" vertex="1" parent="1">
          <mxGeometry x="1630" y="220" width="80" height="80" as="geometry" />
        </mxCell>
        <mxCell id="Q1W2HbKujV4FSigrEpdg-124" value="View My Purchases" style="ellipse;whiteSpace=wrap;html=1;aspect=fixed;" vertex="1" parent="Q1W2HbKujV4FSigrEpdg-123">
          <mxGeometry width="80" height="80" as="geometry" />
        </mxCell>
        <mxCell id="Q1W2HbKujV4FSigrEpdg-125" value="" style="endArrow=none;html=1;rounded=0;" edge="1" parent="Q1W2HbKujV4FSigrEpdg-123">
          <mxGeometry width="50" height="50" relative="1" as="geometry">
            <mxPoint x="5" y="20" as="sourcePoint" />
            <mxPoint x="75" y="20" as="targetPoint" />
          </mxGeometry>
        </mxCell>
        <mxCell id="Q1W2HbKujV4FSigrEpdg-126" value="1.2" style="text;html=1;align=center;verticalAlign=middle;whiteSpace=wrap;rounded=0;" vertex="1" parent="Q1W2HbKujV4FSigrEpdg-123">
          <mxGeometry x="10" width="60" height="30" as="geometry" />
        </mxCell>
        <mxCell id="Q1W2HbKujV4FSigrEpdg-127" value="" style="group" connectable="0" vertex="1" parent="1">
          <mxGeometry x="1630" y="330" width="80" height="80" as="geometry" />
        </mxCell>
        <mxCell id="Q1W2HbKujV4FSigrEpdg-128" value="View Liked Product" style="ellipse;whiteSpace=wrap;html=1;aspect=fixed;" vertex="1" parent="Q1W2HbKujV4FSigrEpdg-127">
          <mxGeometry width="80" height="80" as="geometry" />
        </mxCell>
        <mxCell id="Q1W2HbKujV4FSigrEpdg-129" value="" style="endArrow=none;html=1;rounded=0;" edge="1" parent="Q1W2HbKujV4FSigrEpdg-127">
          <mxGeometry width="50" height="50" relative="1" as="geometry">
            <mxPoint x="5" y="20" as="sourcePoint" />
            <mxPoint x="75" y="20" as="targetPoint" />
          </mxGeometry>
        </mxCell>
        <mxCell id="Q1W2HbKujV4FSigrEpdg-130" value="1.2" style="text;html=1;align=center;verticalAlign=middle;whiteSpace=wrap;rounded=0;" vertex="1" parent="Q1W2HbKujV4FSigrEpdg-127">
          <mxGeometry x="10" width="60" height="30" as="geometry" />
        </mxCell>
        <mxCell id="Q1W2HbKujV4FSigrEpdg-131" value="Payment Gateway" style="rounded=0;whiteSpace=wrap;html=1;" vertex="1" parent="1">
          <mxGeometry x="800" y="820" width="120" height="60" as="geometry" />
        </mxCell>
        <mxCell id="Q1W2HbKujV4FSigrEpdg-132" style="edgeStyle=orthogonalEdgeStyle;rounded=0;orthogonalLoop=1;jettySize=auto;html=1;entryX=0;entryY=0.5;entryDx=0;entryDy=0;" edge="1" parent="1" source="Q1W2HbKujV4FSigrEpdg-80" target="Q1W2HbKujV4FSigrEpdg-131">
          <mxGeometry relative="1" as="geometry">
            <Array as="points">
              <mxPoint x="520" y="850" />
            </Array>
          </mxGeometry>
        </mxCell>
        <mxCell id="Q1W2HbKujV4FSigrEpdg-139" style="edgeStyle=orthogonalEdgeStyle;rounded=0;orthogonalLoop=1;jettySize=auto;html=1;entryX=0;entryY=0.5;entryDx=0;entryDy=0;" edge="1" parent="1" source="Q1W2HbKujV4FSigrEpdg-133" target="Q1W2HbKujV4FSigrEpdg-104">
          <mxGeometry relative="1" as="geometry">
            <Array as="points">
              <mxPoint x="1450" y="145" />
            </Array>
          </mxGeometry>
        </mxCell>
        <mxCell id="Q1W2HbKujV4FSigrEpdg-133" value="Buyer" style="rounded=0;whiteSpace=wrap;html=1;" vertex="1" parent="1">
          <mxGeometry x="1390" y="220" width="120" height="60" as="geometry" />
        </mxCell>
        <mxCell id="Q1W2HbKujV4FSigrEpdg-140" style="edgeStyle=orthogonalEdgeStyle;rounded=0;orthogonalLoop=1;jettySize=auto;html=1;entryX=1;entryY=0.5;entryDx=0;entryDy=0;" edge="1" parent="1" source="Q1W2HbKujV4FSigrEpdg-134" target="Q1W2HbKujV4FSigrEpdg-104">
          <mxGeometry relative="1" as="geometry">
            <Array as="points">
              <mxPoint x="1890" y="145" />
            </Array>
          </mxGeometry>
        </mxCell>
        <mxCell id="Q1W2HbKujV4FSigrEpdg-134" value="Seller" style="rounded=0;whiteSpace=wrap;html=1;" vertex="1" parent="1">
          <mxGeometry x="1830" y="220" width="120" height="60" as="geometry" />
        </mxCell>
        <mxCell id="Q1W2HbKujV4FSigrEpdg-135" value="" style="group" connectable="0" vertex="1" parent="1">
          <mxGeometry x="1930" y="105" width="120" height="30" as="geometry" />
        </mxCell>
        <mxCell id="Q1W2HbKujV4FSigrEpdg-136" value="" style="endArrow=none;html=1;rounded=0;" edge="1" parent="Q1W2HbKujV4FSigrEpdg-135">
          <mxGeometry width="50" height="50" relative="1" as="geometry">
            <mxPoint as="sourcePoint" />
            <mxPoint x="120" as="targetPoint" />
          </mxGeometry>
        </mxCell>
        <mxCell id="Q1W2HbKujV4FSigrEpdg-137" value="" style="endArrow=none;html=1;rounded=0;" edge="1" parent="Q1W2HbKujV4FSigrEpdg-135">
          <mxGeometry width="50" height="50" relative="1" as="geometry">
            <mxPoint y="30" as="sourcePoint" />
            <mxPoint x="120" y="30" as="targetPoint" />
          </mxGeometry>
        </mxCell>
        <mxCell id="Q1W2HbKujV4FSigrEpdg-138" value="User database" style="text;html=1;align=center;verticalAlign=middle;whiteSpace=wrap;rounded=0;" vertex="1" parent="Q1W2HbKujV4FSigrEpdg-135">
          <mxGeometry width="120" height="30" as="geometry" />
        </mxCell>
        <mxCell id="Q1W2HbKujV4FSigrEpdg-141" value="Data" style="text;html=1;align=center;verticalAlign=middle;whiteSpace=wrap;rounded=0;" vertex="1" parent="1">
          <mxGeometry x="1790" y="65" width="60" height="30" as="geometry" />
        </mxCell>
        <mxCell id="Q1W2HbKujV4FSigrEpdg-142" value="Buyer credential/ Information" style="text;html=1;align=center;verticalAlign=middle;whiteSpace=wrap;rounded=0;" vertex="1" parent="1">
          <mxGeometry x="1430" y="125" width="210" height="30" as="geometry" />
        </mxCell>
        <mxCell id="Q1W2HbKujV4FSigrEpdg-143" value="Data" style="text;html=1;align=center;verticalAlign=middle;whiteSpace=wrap;rounded=0;" vertex="1" parent="1">
          <mxGeometry x="2040" y="160" width="60" height="30" as="geometry" />
        </mxCell>
        <mxCell id="Q1W2HbKujV4FSigrEpdg-144" value="Seller credential/ Information" style="text;html=1;align=center;verticalAlign=middle;whiteSpace=wrap;rounded=0;" vertex="1" parent="1">
          <mxGeometry x="1700" y="125" width="210" height="30" as="geometry" />
        </mxCell>
        <mxCell id="Q1W2HbKujV4FSigrEpdg-147" style="edgeStyle=orthogonalEdgeStyle;rounded=0;orthogonalLoop=1;jettySize=auto;html=1;exitX=0.5;exitY=0;exitDx=0;exitDy=0;entryX=0.5;entryY=0;entryDx=0;entryDy=0;" edge="1" parent="1" source="Q1W2HbKujV4FSigrEpdg-106" target="Q1W2HbKujV4FSigrEpdg-138">
          <mxGeometry relative="1" as="geometry" />
        </mxCell>
        <mxCell id="Q1W2HbKujV4FSigrEpdg-152" value="" style="group" connectable="0" vertex="1" parent="1">
          <mxGeometry x="1980" y="185" width="180" height="30" as="geometry" />
        </mxCell>
        <mxCell id="Q1W2HbKujV4FSigrEpdg-153" value="" style="endArrow=none;html=1;rounded=0;" edge="1" parent="Q1W2HbKujV4FSigrEpdg-152">
          <mxGeometry width="50" height="50" relative="1" as="geometry">
            <mxPoint as="sourcePoint" />
            <mxPoint x="180" as="targetPoint" />
          </mxGeometry>
        </mxCell>
        <mxCell id="Q1W2HbKujV4FSigrEpdg-154" value="" style="endArrow=none;html=1;rounded=0;" edge="1" parent="Q1W2HbKujV4FSigrEpdg-152">
          <mxGeometry width="50" height="50" relative="1" as="geometry">
            <mxPoint y="30" as="sourcePoint" />
            <mxPoint x="180" y="30" as="targetPoint" />
          </mxGeometry>
        </mxCell>
        <mxCell id="Q1W2HbKujV4FSigrEpdg-155" value="Ordered/Sold Product database" style="text;html=1;align=center;verticalAlign=middle;whiteSpace=wrap;rounded=0;" vertex="1" parent="Q1W2HbKujV4FSigrEpdg-152">
          <mxGeometry width="180" height="30" as="geometry" />
        </mxCell>
        <mxCell id="Q1W2HbKujV4FSigrEpdg-156" style="edgeStyle=orthogonalEdgeStyle;rounded=0;orthogonalLoop=1;jettySize=auto;html=1;exitX=1;exitY=0.5;exitDx=0;exitDy=0;entryX=0.069;entryY=0.37;entryDx=0;entryDy=0;entryPerimeter=0;" edge="1" parent="1" source="Q1W2HbKujV4FSigrEpdg-133" target="Q1W2HbKujV4FSigrEpdg-124">
          <mxGeometry relative="1" as="geometry" />
        </mxCell>
        <mxCell id="Q1W2HbKujV4FSigrEpdg-157" style="edgeStyle=orthogonalEdgeStyle;rounded=0;orthogonalLoop=1;jettySize=auto;html=1;exitX=0;exitY=0.5;exitDx=0;exitDy=0;entryX=1;entryY=0.5;entryDx=0;entryDy=0;" edge="1" parent="1" source="Q1W2HbKujV4FSigrEpdg-155" target="Q1W2HbKujV4FSigrEpdg-126">
          <mxGeometry relative="1" as="geometry">
            <Array as="points">
              <mxPoint x="1700" y="200" />
            </Array>
          </mxGeometry>
        </mxCell>
        <mxCell id="Q1W2HbKujV4FSigrEpdg-159" value="" style="group" connectable="0" vertex="1" parent="1">
          <mxGeometry x="1980" y="290" width="120" height="30" as="geometry" />
        </mxCell>
        <mxCell id="Q1W2HbKujV4FSigrEpdg-160" value="" style="endArrow=none;html=1;rounded=0;" edge="1" parent="Q1W2HbKujV4FSigrEpdg-159">
          <mxGeometry width="50" height="50" relative="1" as="geometry">
            <mxPoint as="sourcePoint" />
            <mxPoint x="120" as="targetPoint" />
          </mxGeometry>
        </mxCell>
        <mxCell id="Q1W2HbKujV4FSigrEpdg-161" value="" style="endArrow=none;html=1;rounded=0;" edge="1" parent="Q1W2HbKujV4FSigrEpdg-159">
          <mxGeometry width="50" height="50" relative="1" as="geometry">
            <mxPoint y="30" as="sourcePoint" />
            <mxPoint x="120" y="30" as="targetPoint" />
          </mxGeometry>
        </mxCell>
        <mxCell id="Q1W2HbKujV4FSigrEpdg-162" value="Liked Prodcut" style="text;html=1;align=center;verticalAlign=middle;whiteSpace=wrap;rounded=0;" vertex="1" parent="Q1W2HbKujV4FSigrEpdg-159">
          <mxGeometry width="120" height="30" as="geometry" />
        </mxCell>
        <mxCell id="Q1W2HbKujV4FSigrEpdg-164" style="edgeStyle=orthogonalEdgeStyle;rounded=0;orthogonalLoop=1;jettySize=auto;html=1;entryX=0.5;entryY=1;entryDx=0;entryDy=0;" edge="1" parent="1" source="Q1W2HbKujV4FSigrEpdg-128" target="Q1W2HbKujV4FSigrEpdg-133">
          <mxGeometry relative="1" as="geometry" />
        </mxCell>
        <mxCell id="Q1W2HbKujV4FSigrEpdg-165" style="edgeStyle=orthogonalEdgeStyle;rounded=0;orthogonalLoop=1;jettySize=auto;html=1;entryX=0.992;entryY=0.452;entryDx=0;entryDy=0;entryPerimeter=0;" edge="1" parent="1" source="Q1W2HbKujV4FSigrEpdg-162" target="Q1W2HbKujV4FSigrEpdg-128">
          <mxGeometry relative="1" as="geometry">
            <Array as="points">
              <mxPoint x="2040" y="366" />
            </Array>
          </mxGeometry>
        </mxCell>
        <mxCell id="Q1W2HbKujV4FSigrEpdg-167" value="" style="endArrow=none;html=1;rounded=0;" edge="1" parent="1">
          <mxGeometry width="50" height="50" relative="1" as="geometry">
            <mxPoint x="1340" y="440" as="sourcePoint" />
            <mxPoint x="2280" y="440" as="targetPoint" />
          </mxGeometry>
        </mxCell>
        <mxCell id="Q1W2HbKujV4FSigrEpdg-168" value="" style="group" connectable="0" vertex="1" parent="1">
          <mxGeometry x="1910" y="600" width="120" height="30" as="geometry" />
        </mxCell>
        <mxCell id="Q1W2HbKujV4FSigrEpdg-169" value="" style="endArrow=none;html=1;rounded=0;" edge="1" parent="Q1W2HbKujV4FSigrEpdg-168">
          <mxGeometry width="50" height="50" relative="1" as="geometry">
            <mxPoint as="sourcePoint" />
            <mxPoint x="120" as="targetPoint" />
          </mxGeometry>
        </mxCell>
        <mxCell id="Q1W2HbKujV4FSigrEpdg-170" value="" style="endArrow=none;html=1;rounded=0;" edge="1" parent="Q1W2HbKujV4FSigrEpdg-168">
          <mxGeometry width="50" height="50" relative="1" as="geometry">
            <mxPoint y="30" as="sourcePoint" />
            <mxPoint x="120" y="30" as="targetPoint" />
          </mxGeometry>
        </mxCell>
        <mxCell id="Q1W2HbKujV4FSigrEpdg-171" value="Product database" style="text;html=1;align=center;verticalAlign=middle;whiteSpace=wrap;rounded=0;" vertex="1" parent="Q1W2HbKujV4FSigrEpdg-168">
          <mxGeometry width="120" height="30" as="geometry" />
        </mxCell>
        <mxCell id="Q1W2HbKujV4FSigrEpdg-172" value="Buyer" style="rounded=0;whiteSpace=wrap;html=1;" vertex="1" parent="1">
          <mxGeometry x="1510" y="510" width="120" height="60" as="geometry" />
        </mxCell>
        <mxCell id="Q1W2HbKujV4FSigrEpdg-173" style="edgeStyle=orthogonalEdgeStyle;rounded=0;orthogonalLoop=1;jettySize=auto;html=1;entryX=0.011;entryY=0.632;entryDx=0;entryDy=0;entryPerimeter=0;" edge="1" parent="1" source="Q1W2HbKujV4FSigrEpdg-172" target="Q1W2HbKujV4FSigrEpdg-116">
          <mxGeometry relative="1" as="geometry" />
        </mxCell>
        <mxCell id="Q1W2HbKujV4FSigrEpdg-175" value="Ordered Product" style="text;html=1;align=center;verticalAlign=middle;whiteSpace=wrap;rounded=0;" vertex="1" parent="1">
          <mxGeometry x="1560" y="1090" width="100" height="30" as="geometry" />
        </mxCell>
        <mxCell id="Q1W2HbKujV4FSigrEpdg-177" value="Parameter" style="text;html=1;align=center;verticalAlign=middle;whiteSpace=wrap;rounded=0;" vertex="1" parent="1">
          <mxGeometry x="1650" y="515" width="60" height="30" as="geometry" />
        </mxCell>
        <mxCell id="Q1W2HbKujV4FSigrEpdg-178" style="edgeStyle=orthogonalEdgeStyle;rounded=0;orthogonalLoop=1;jettySize=auto;html=1;exitX=0.5;exitY=1;exitDx=0;exitDy=0;entryX=0.5;entryY=0;entryDx=0;entryDy=0;" edge="1" parent="1" source="Q1W2HbKujV4FSigrEpdg-116" target="Q1W2HbKujV4FSigrEpdg-110">
          <mxGeometry relative="1" as="geometry" />
        </mxCell>
        <mxCell id="Q1W2HbKujV4FSigrEpdg-179" style="edgeStyle=orthogonalEdgeStyle;rounded=0;orthogonalLoop=1;jettySize=auto;html=1;entryX=0.471;entryY=0.019;entryDx=0;entryDy=0;entryPerimeter=0;" edge="1" parent="1" source="Q1W2HbKujV4FSigrEpdg-108" target="Q1W2HbKujV4FSigrEpdg-171">
          <mxGeometry relative="1" as="geometry">
            <Array as="points">
              <mxPoint x="1810" y="580" />
              <mxPoint x="1967" y="580" />
            </Array>
          </mxGeometry>
        </mxCell>
        <mxCell id="Q1W2HbKujV4FSigrEpdg-180" value="Request" style="text;html=1;align=center;verticalAlign=middle;whiteSpace=wrap;rounded=0;" vertex="1" parent="1">
          <mxGeometry x="1860" y="560" width="60" height="30" as="geometry" />
        </mxCell>
        <mxCell id="Q1W2HbKujV4FSigrEpdg-181" style="edgeStyle=orthogonalEdgeStyle;rounded=0;orthogonalLoop=1;jettySize=auto;html=1;exitX=0.5;exitY=1;exitDx=0;exitDy=0;entryX=0.553;entryY=1.014;entryDx=0;entryDy=0;entryPerimeter=0;" edge="1" parent="1" source="Q1W2HbKujV4FSigrEpdg-171" target="Q1W2HbKujV4FSigrEpdg-172">
          <mxGeometry relative="1" as="geometry">
            <Array as="points">
              <mxPoint x="1970" y="730" />
              <mxPoint x="1576" y="730" />
            </Array>
          </mxGeometry>
        </mxCell>
        <mxCell id="Q1W2HbKujV4FSigrEpdg-183" value="Filtered Product" style="text;html=1;align=center;verticalAlign=middle;whiteSpace=wrap;rounded=0;" vertex="1" parent="1">
          <mxGeometry x="1715" y="710" width="110" height="30" as="geometry" />
        </mxCell>
        <mxCell id="Q1W2HbKujV4FSigrEpdg-184" value="" style="endArrow=none;html=1;rounded=0;" edge="1" parent="1">
          <mxGeometry width="50" height="50" relative="1" as="geometry">
            <mxPoint x="1350" y="754.4100000000001" as="sourcePoint" />
            <mxPoint x="2290" y="754.4100000000001" as="targetPoint" />
          </mxGeometry>
        </mxCell>
        <mxCell id="Q1W2HbKujV4FSigrEpdg-185" value="" style="group" connectable="0" vertex="1" parent="1">
          <mxGeometry x="1750" y="800" width="80" height="80" as="geometry" />
        </mxCell>
        <mxCell id="Q1W2HbKujV4FSigrEpdg-186" value="Post products" style="ellipse;whiteSpace=wrap;html=1;aspect=fixed;" vertex="1" parent="Q1W2HbKujV4FSigrEpdg-185">
          <mxGeometry width="80" height="80" as="geometry" />
        </mxCell>
        <mxCell id="Q1W2HbKujV4FSigrEpdg-187" value="" style="endArrow=none;html=1;rounded=0;" edge="1" parent="Q1W2HbKujV4FSigrEpdg-185">
          <mxGeometry width="50" height="50" relative="1" as="geometry">
            <mxPoint x="5" y="20" as="sourcePoint" />
            <mxPoint x="75" y="20" as="targetPoint" />
          </mxGeometry>
        </mxCell>
        <mxCell id="Q1W2HbKujV4FSigrEpdg-188" value="3.1" style="text;html=1;align=center;verticalAlign=middle;whiteSpace=wrap;rounded=0;" vertex="1" parent="Q1W2HbKujV4FSigrEpdg-185">
          <mxGeometry x="10" width="60" height="30" as="geometry" />
        </mxCell>
        <mxCell id="Q1W2HbKujV4FSigrEpdg-193" value="" style="group" connectable="0" vertex="1" parent="1">
          <mxGeometry x="1750" y="930" width="80" height="80" as="geometry" />
        </mxCell>
        <mxCell id="Q1W2HbKujV4FSigrEpdg-194" value="Update/Delete&lt;div&gt;Product&lt;/div&gt;" style="ellipse;whiteSpace=wrap;html=1;aspect=fixed;" vertex="1" parent="Q1W2HbKujV4FSigrEpdg-193">
          <mxGeometry width="80" height="80" as="geometry" />
        </mxCell>
        <mxCell id="Q1W2HbKujV4FSigrEpdg-195" value="" style="endArrow=none;html=1;rounded=0;" edge="1" parent="Q1W2HbKujV4FSigrEpdg-193">
          <mxGeometry width="50" height="50" relative="1" as="geometry">
            <mxPoint x="5" y="20" as="sourcePoint" />
            <mxPoint x="75" y="20" as="targetPoint" />
          </mxGeometry>
        </mxCell>
        <mxCell id="Q1W2HbKujV4FSigrEpdg-196" value="3.2" style="text;html=1;align=center;verticalAlign=middle;whiteSpace=wrap;rounded=0;" vertex="1" parent="Q1W2HbKujV4FSigrEpdg-193">
          <mxGeometry x="10" width="60" height="30" as="geometry" />
        </mxCell>
        <mxCell id="Q1W2HbKujV4FSigrEpdg-203" style="edgeStyle=orthogonalEdgeStyle;rounded=0;orthogonalLoop=1;jettySize=auto;html=1;entryX=0;entryY=0.5;entryDx=0;entryDy=0;" edge="1" parent="1" source="Q1W2HbKujV4FSigrEpdg-197" target="Q1W2HbKujV4FSigrEpdg-186">
          <mxGeometry relative="1" as="geometry">
            <Array as="points">
              <mxPoint x="1535" y="840" />
            </Array>
          </mxGeometry>
        </mxCell>
        <mxCell id="Q1W2HbKujV4FSigrEpdg-210" style="edgeStyle=orthogonalEdgeStyle;rounded=0;orthogonalLoop=1;jettySize=auto;html=1;exitX=1;exitY=0.5;exitDx=0;exitDy=0;entryX=0;entryY=0.5;entryDx=0;entryDy=0;" edge="1" parent="1" source="Q1W2HbKujV4FSigrEpdg-197" target="Q1W2HbKujV4FSigrEpdg-194">
          <mxGeometry relative="1" as="geometry" />
        </mxCell>
        <mxCell id="Q1W2HbKujV4FSigrEpdg-197" value="Buyer" style="rounded=0;whiteSpace=wrap;html=1;" vertex="1" parent="1">
          <mxGeometry x="1475" y="940" width="120" height="60" as="geometry" />
        </mxCell>
        <mxCell id="Q1W2HbKujV4FSigrEpdg-204" style="edgeStyle=orthogonalEdgeStyle;rounded=0;orthogonalLoop=1;jettySize=auto;html=1;entryX=1;entryY=0.5;entryDx=0;entryDy=0;" edge="1" parent="1" source="Q1W2HbKujV4FSigrEpdg-198" target="Q1W2HbKujV4FSigrEpdg-186">
          <mxGeometry relative="1" as="geometry">
            <Array as="points">
              <mxPoint x="2020" y="840" />
            </Array>
          </mxGeometry>
        </mxCell>
        <mxCell id="Q1W2HbKujV4FSigrEpdg-212" style="edgeStyle=orthogonalEdgeStyle;rounded=0;orthogonalLoop=1;jettySize=auto;html=1;entryX=1;entryY=0.5;entryDx=0;entryDy=0;" edge="1" parent="1" source="Q1W2HbKujV4FSigrEpdg-198" target="Q1W2HbKujV4FSigrEpdg-194">
          <mxGeometry relative="1" as="geometry" />
        </mxCell>
        <mxCell id="Q1W2HbKujV4FSigrEpdg-198" value="Seller" style="rounded=0;whiteSpace=wrap;html=1;" vertex="1" parent="1">
          <mxGeometry x="1960" y="940" width="120" height="60" as="geometry" />
        </mxCell>
        <mxCell id="Q1W2HbKujV4FSigrEpdg-199" value="" style="group" connectable="0" vertex="1" parent="1">
          <mxGeometry x="2050" y="900" width="120" height="30" as="geometry" />
        </mxCell>
        <mxCell id="Q1W2HbKujV4FSigrEpdg-200" value="" style="endArrow=none;html=1;rounded=0;" edge="1" parent="Q1W2HbKujV4FSigrEpdg-199">
          <mxGeometry width="50" height="50" relative="1" as="geometry">
            <mxPoint as="sourcePoint" />
            <mxPoint x="120" as="targetPoint" />
          </mxGeometry>
        </mxCell>
        <mxCell id="Q1W2HbKujV4FSigrEpdg-201" value="" style="endArrow=none;html=1;rounded=0;" edge="1" parent="Q1W2HbKujV4FSigrEpdg-199">
          <mxGeometry width="50" height="50" relative="1" as="geometry">
            <mxPoint y="30" as="sourcePoint" />
            <mxPoint x="120" y="30" as="targetPoint" />
          </mxGeometry>
        </mxCell>
        <mxCell id="Q1W2HbKujV4FSigrEpdg-202" value="Product database" style="text;html=1;align=center;verticalAlign=middle;whiteSpace=wrap;rounded=0;" vertex="1" parent="Q1W2HbKujV4FSigrEpdg-199">
          <mxGeometry width="120" height="30" as="geometry" />
        </mxCell>
        <mxCell id="Q1W2HbKujV4FSigrEpdg-206" value="Modified Product" style="text;html=1;align=center;verticalAlign=middle;whiteSpace=wrap;rounded=0;" vertex="1" parent="1">
          <mxGeometry x="1610" y="950" width="120" height="30" as="geometry" />
        </mxCell>
        <mxCell id="Q1W2HbKujV4FSigrEpdg-207" value="Modified Product" style="text;html=1;align=center;verticalAlign=middle;whiteSpace=wrap;rounded=0;" vertex="1" parent="1">
          <mxGeometry x="1840" y="950" width="120" height="30" as="geometry" />
        </mxCell>
        <mxCell id="Q1W2HbKujV4FSigrEpdg-208" style="edgeStyle=orthogonalEdgeStyle;rounded=0;orthogonalLoop=1;jettySize=auto;html=1;exitX=1;exitY=1;exitDx=0;exitDy=0;entryX=0.5;entryY=0;entryDx=0;entryDy=0;" edge="1" parent="1" source="Q1W2HbKujV4FSigrEpdg-186" target="Q1W2HbKujV4FSigrEpdg-202">
          <mxGeometry relative="1" as="geometry">
            <Array as="points">
              <mxPoint x="2110" y="868" />
            </Array>
          </mxGeometry>
        </mxCell>
        <mxCell id="Q1W2HbKujV4FSigrEpdg-209" value="Changes" style="text;html=1;align=center;verticalAlign=middle;whiteSpace=wrap;rounded=0;" vertex="1" parent="1">
          <mxGeometry x="1850" y="880" width="120" height="30" as="geometry" />
        </mxCell>
        <mxCell id="Q1W2HbKujV4FSigrEpdg-211" value="Want to buy product" style="text;html=1;align=center;verticalAlign=middle;whiteSpace=wrap;rounded=0;" vertex="1" parent="1">
          <mxGeometry x="1580" y="812" width="120" height="30" as="geometry" />
        </mxCell>
        <mxCell id="Q1W2HbKujV4FSigrEpdg-213" value="Want to sell product" style="text;html=1;align=center;verticalAlign=middle;whiteSpace=wrap;rounded=0;" vertex="1" parent="1">
          <mxGeometry x="1860" y="812" width="120" height="30" as="geometry" />
        </mxCell>
        <mxCell id="Q1W2HbKujV4FSigrEpdg-214" style="edgeStyle=orthogonalEdgeStyle;rounded=0;orthogonalLoop=1;jettySize=auto;html=1;exitX=0.5;exitY=0;exitDx=0;exitDy=0;entryX=0;entryY=0.25;entryDx=0;entryDy=0;" edge="1" parent="1" source="Q1W2HbKujV4FSigrEpdg-196" target="Q1W2HbKujV4FSigrEpdg-202">
          <mxGeometry relative="1" as="geometry" />
        </mxCell>
        <mxCell id="Q1W2HbKujV4FSigrEpdg-215" value="Product" style="text;html=1;align=center;verticalAlign=middle;whiteSpace=wrap;rounded=0;" vertex="1" parent="1">
          <mxGeometry x="1850" y="842" width="120" height="30" as="geometry" />
        </mxCell>
        <mxCell id="Q1W2HbKujV4FSigrEpdg-218" value="" style="endArrow=none;html=1;rounded=0;" edge="1" parent="1">
          <mxGeometry width="50" height="50" relative="1" as="geometry">
            <mxPoint x="1340" y="1040" as="sourcePoint" />
            <mxPoint x="2280" y="1040" as="targetPoint" />
          </mxGeometry>
        </mxCell>
        <mxCell id="Q1W2HbKujV4FSigrEpdg-219" style="edgeStyle=orthogonalEdgeStyle;rounded=0;orthogonalLoop=1;jettySize=auto;html=1;entryX=0.5;entryY=0;entryDx=0;entryDy=0;" edge="1" parent="1" source="Q1W2HbKujV4FSigrEpdg-28" target="Q1W2HbKujV4FSigrEpdg-82">
          <mxGeometry relative="1" as="geometry" />
        </mxCell>
        <mxCell id="Q1W2HbKujV4FSigrEpdg-220" style="edgeStyle=orthogonalEdgeStyle;rounded=0;orthogonalLoop=1;jettySize=auto;html=1;entryX=0.5;entryY=0;entryDx=0;entryDy=0;" edge="1" parent="1" source="SNCVLQs43mSJRQqrSbxp-9" target="Q1W2HbKujV4FSigrEpdg-26">
          <mxGeometry relative="1" as="geometry" />
        </mxCell>
        <mxCell id="Q1W2HbKujV4FSigrEpdg-221" style="edgeStyle=orthogonalEdgeStyle;rounded=0;orthogonalLoop=1;jettySize=auto;html=1;entryX=0.5;entryY=0;entryDx=0;entryDy=0;" edge="1" parent="1" source="Q1W2HbKujV4FSigrEpdg-24" target="Q1W2HbKujV4FSigrEpdg-30">
          <mxGeometry relative="1" as="geometry" />
        </mxCell>
        <mxCell id="Q1W2HbKujV4FSigrEpdg-228" style="edgeStyle=orthogonalEdgeStyle;rounded=0;orthogonalLoop=1;jettySize=auto;html=1;entryX=0;entryY=0.5;entryDx=0;entryDy=0;" edge="1" parent="1" source="Q1W2HbKujV4FSigrEpdg-222" target="Q1W2HbKujV4FSigrEpdg-32">
          <mxGeometry relative="1" as="geometry">
            <Array as="points">
              <mxPoint x="1500" y="1120" />
            </Array>
          </mxGeometry>
        </mxCell>
        <mxCell id="Q1W2HbKujV4FSigrEpdg-222" value="Buyer" style="rounded=0;whiteSpace=wrap;html=1;" vertex="1" parent="1">
          <mxGeometry x="1440" y="1220" width="120" height="60" as="geometry" />
        </mxCell>
        <mxCell id="Q1W2HbKujV4FSigrEpdg-223" value="Seller" style="rounded=0;whiteSpace=wrap;html=1;" vertex="1" parent="1">
          <mxGeometry x="1950" y="1220" width="120" height="60" as="geometry" />
        </mxCell>
        <mxCell id="Q1W2HbKujV4FSigrEpdg-224" value="" style="group" connectable="0" vertex="1" parent="1">
          <mxGeometry x="2050" y="1150" width="180" height="30" as="geometry" />
        </mxCell>
        <mxCell id="Q1W2HbKujV4FSigrEpdg-225" value="" style="endArrow=none;html=1;rounded=0;" edge="1" parent="Q1W2HbKujV4FSigrEpdg-224">
          <mxGeometry width="50" height="50" relative="1" as="geometry">
            <mxPoint as="sourcePoint" />
            <mxPoint x="180" as="targetPoint" />
          </mxGeometry>
        </mxCell>
        <mxCell id="Q1W2HbKujV4FSigrEpdg-226" value="" style="endArrow=none;html=1;rounded=0;" edge="1" parent="Q1W2HbKujV4FSigrEpdg-224">
          <mxGeometry width="50" height="50" relative="1" as="geometry">
            <mxPoint y="30" as="sourcePoint" />
            <mxPoint x="180" y="30" as="targetPoint" />
          </mxGeometry>
        </mxCell>
        <mxCell id="Q1W2HbKujV4FSigrEpdg-227" value="Ordered/Sold Product database" style="text;html=1;align=center;verticalAlign=middle;whiteSpace=wrap;rounded=0;" vertex="1" parent="Q1W2HbKujV4FSigrEpdg-224">
          <mxGeometry width="180" height="30" as="geometry" />
        </mxCell>
        <mxCell id="Q1W2HbKujV4FSigrEpdg-229" value="Payment Gateway" style="rounded=0;whiteSpace=wrap;html=1;" vertex="1" parent="1">
          <mxGeometry x="1580" y="1160" width="120" height="60" as="geometry" />
        </mxCell>
        <mxCell id="Q1W2HbKujV4FSigrEpdg-230" style="edgeStyle=orthogonalEdgeStyle;rounded=0;orthogonalLoop=1;jettySize=auto;html=1;entryX=0.5;entryY=0;entryDx=0;entryDy=0;" edge="1" parent="1" source="Q1W2HbKujV4FSigrEpdg-32" target="Q1W2HbKujV4FSigrEpdg-223">
          <mxGeometry relative="1" as="geometry" />
        </mxCell>
        <mxCell id="Q1W2HbKujV4FSigrEpdg-231" value="Ordered Product" style="text;html=1;align=center;verticalAlign=middle;whiteSpace=wrap;rounded=0;" vertex="1" parent="1">
          <mxGeometry x="1860" y="1100" width="100" height="30" as="geometry" />
        </mxCell>
        <mxCell id="Q1W2HbKujV4FSigrEpdg-233" style="edgeStyle=orthogonalEdgeStyle;rounded=0;orthogonalLoop=1;jettySize=auto;html=1;exitX=1;exitY=1;exitDx=0;exitDy=0;entryX=0;entryY=0;entryDx=0;entryDy=0;" edge="1" parent="1" source="Q1W2HbKujV4FSigrEpdg-32" target="Q1W2HbKujV4FSigrEpdg-227">
          <mxGeometry relative="1" as="geometry">
            <Array as="points">
              <mxPoint x="1940" y="1148" />
              <mxPoint x="1940" y="1150" />
            </Array>
          </mxGeometry>
        </mxCell>
        <mxCell id="Q1W2HbKujV4FSigrEpdg-234" value="Ordered Product" style="text;html=1;align=center;verticalAlign=middle;whiteSpace=wrap;rounded=0;" vertex="1" parent="1">
          <mxGeometry x="1850" y="1130" width="100" height="30" as="geometry" />
        </mxCell>
        <mxCell id="Q1W2HbKujV4FSigrEpdg-235" style="edgeStyle=orthogonalEdgeStyle;rounded=0;orthogonalLoop=1;jettySize=auto;html=1;exitX=0.5;exitY=1;exitDx=0;exitDy=0;entryX=0.5;entryY=0;entryDx=0;entryDy=0;" edge="1" parent="1" source="Q1W2HbKujV4FSigrEpdg-32" target="Q1W2HbKujV4FSigrEpdg-122">
          <mxGeometry relative="1" as="geometry" />
        </mxCell>
        <mxCell id="Q1W2HbKujV4FSigrEpdg-237" value="" style="group" connectable="0" vertex="1" parent="1">
          <mxGeometry x="2040" y="1360" width="180" height="30" as="geometry" />
        </mxCell>
        <mxCell id="Q1W2HbKujV4FSigrEpdg-238" value="" style="endArrow=none;html=1;rounded=0;" edge="1" parent="Q1W2HbKujV4FSigrEpdg-237">
          <mxGeometry width="50" height="50" relative="1" as="geometry">
            <mxPoint as="sourcePoint" />
            <mxPoint x="180" as="targetPoint" />
          </mxGeometry>
        </mxCell>
        <mxCell id="Q1W2HbKujV4FSigrEpdg-239" value="" style="endArrow=none;html=1;rounded=0;" edge="1" parent="Q1W2HbKujV4FSigrEpdg-237">
          <mxGeometry width="50" height="50" relative="1" as="geometry">
            <mxPoint y="30" as="sourcePoint" />
            <mxPoint x="180" y="30" as="targetPoint" />
          </mxGeometry>
        </mxCell>
        <mxCell id="Q1W2HbKujV4FSigrEpdg-240" value="Shipping company" style="text;html=1;align=center;verticalAlign=middle;whiteSpace=wrap;rounded=0;" vertex="1" parent="Q1W2HbKujV4FSigrEpdg-237">
          <mxGeometry width="180" height="30" as="geometry" />
        </mxCell>
        <mxCell id="Q1W2HbKujV4FSigrEpdg-241" style="edgeStyle=orthogonalEdgeStyle;rounded=0;orthogonalLoop=1;jettySize=auto;html=1;exitX=0;exitY=0.5;exitDx=0;exitDy=0;entryX=1;entryY=0.5;entryDx=0;entryDy=0;" edge="1" parent="1" source="Q1W2HbKujV4FSigrEpdg-120" target="Q1W2HbKujV4FSigrEpdg-229">
          <mxGeometry relative="1" as="geometry" />
        </mxCell>
        <mxCell id="Q1W2HbKujV4FSigrEpdg-242" style="edgeStyle=orthogonalEdgeStyle;rounded=0;orthogonalLoop=1;jettySize=auto;html=1;exitX=0.5;exitY=1;exitDx=0;exitDy=0;entryX=0.5;entryY=1;entryDx=0;entryDy=0;" edge="1" parent="1" source="Q1W2HbKujV4FSigrEpdg-112" target="Q1W2HbKujV4FSigrEpdg-240">
          <mxGeometry relative="1" as="geometry" />
        </mxCell>
        <mxCell id="Q1W2HbKujV4FSigrEpdg-243" style="edgeStyle=orthogonalEdgeStyle;rounded=0;orthogonalLoop=1;jettySize=auto;html=1;exitX=1;exitY=0.5;exitDx=0;exitDy=0;entryX=0.5;entryY=1;entryDx=0;entryDy=0;" edge="1" parent="1" source="Q1W2HbKujV4FSigrEpdg-112" target="Q1W2HbKujV4FSigrEpdg-223">
          <mxGeometry relative="1" as="geometry" />
        </mxCell>
        <mxCell id="Q1W2HbKujV4FSigrEpdg-244" style="edgeStyle=orthogonalEdgeStyle;rounded=0;orthogonalLoop=1;jettySize=auto;html=1;exitX=0;exitY=0.5;exitDx=0;exitDy=0;entryX=1;entryY=0.5;entryDx=0;entryDy=0;" edge="1" parent="1" source="Q1W2HbKujV4FSigrEpdg-112" target="Q1W2HbKujV4FSigrEpdg-222">
          <mxGeometry relative="1" as="geometry">
            <Array as="points">
              <mxPoint x="1620" y="1360" />
              <mxPoint x="1620" y="1250" />
            </Array>
          </mxGeometry>
        </mxCell>
        <mxCell id="Q1W2HbKujV4FSigrEpdg-248" value="Shipping status" style="text;html=1;align=center;verticalAlign=middle;whiteSpace=wrap;rounded=0;" vertex="1" parent="1">
          <mxGeometry x="1854" y="1330" width="92" height="30" as="geometry" />
        </mxCell>
        <mxCell id="Q1W2HbKujV4FSigrEpdg-249" value="Ordered information" style="text;html=1;align=center;verticalAlign=middle;whiteSpace=wrap;rounded=0;" vertex="1" parent="1">
          <mxGeometry x="1848" y="1390" width="122" height="30" as="geometry" />
        </mxCell>
        <mxCell id="Q1W2HbKujV4FSigrEpdg-251" value="Shipping status" style="text;html=1;align=center;verticalAlign=middle;whiteSpace=wrap;rounded=0;" vertex="1" parent="1">
          <mxGeometry x="1630" y="1340" width="92" height="30" as="geometry" />
        </mxCell>
        <mxCell id="Q1W2HbKujV4FSigrEpdg-252" value="Shipping company" style="rounded=0;whiteSpace=wrap;html=1;" vertex="1" parent="1">
          <mxGeometry x="1510" y="1420" width="120" height="60" as="geometry" />
        </mxCell>
        <mxCell id="Q1W2HbKujV4FSigrEpdg-253" style="edgeStyle=orthogonalEdgeStyle;rounded=0;orthogonalLoop=1;jettySize=auto;html=1;exitX=0;exitY=1;exitDx=0;exitDy=0;entryX=0.435;entryY=0.069;entryDx=0;entryDy=0;entryPerimeter=0;" edge="1" parent="1" source="Q1W2HbKujV4FSigrEpdg-112" target="Q1W2HbKujV4FSigrEpdg-252">
          <mxGeometry relative="1" as="geometry" />
        </mxCell>
        <mxCell id="Q1W2HbKujV4FSigrEpdg-254" value="Shipping status" style="text;html=1;align=center;verticalAlign=middle;whiteSpace=wrap;rounded=0;" vertex="1" parent="1">
          <mxGeometry x="1634" y="1360" width="92" height="30" as="geometry" />
        </mxCell>
        <mxCell id="Q1W2HbKujV4FSigrEpdg-255" style="edgeStyle=orthogonalEdgeStyle;rounded=0;orthogonalLoop=1;jettySize=auto;html=1;exitX=1;exitY=0.5;exitDx=0;exitDy=0;entryX=0.402;entryY=0.958;entryDx=0;entryDy=0;entryPerimeter=0;" edge="1" parent="1" source="Q1W2HbKujV4FSigrEpdg-252" target="Q1W2HbKujV4FSigrEpdg-112">
          <mxGeometry relative="1" as="geometry" />
        </mxCell>
        <mxCell id="Q1W2HbKujV4FSigrEpdg-256" value="Update shipping status" style="text;html=1;align=center;verticalAlign=middle;whiteSpace=wrap;rounded=0;" vertex="1" parent="1">
          <mxGeometry x="1630" y="1420" width="140" height="30" as="geometry" />
        </mxCell>
        <mxCell id="Q1W2HbKujV4FSigrEpdg-257" value="" style="endArrow=none;html=1;rounded=0;" edge="1" parent="1">
          <mxGeometry width="50" height="50" relative="1" as="geometry">
            <mxPoint x="50" y="269.99999999999994" as="sourcePoint" />
            <mxPoint x="990" y="269.99999999999994" as="targetPoint" />
          </mxGeometry>
        </mxCell>
      </root>
    </mxGraphModel>
  </diagram>
</mxfile>
